<svg id="my-svg" width="100%" xmlns="http://www.w3.org/2000/svg" xmlns:xlink="http://www.w3.org/1999/xlink" class="flowchart" style="max-width: 1514px; background-color: white;" viewBox="0 -50 1514 830" role="graphics-document document" aria-roledescription="flowchart-v2"><style>#my-svg{font-family:"trebuchet ms",verdana,arial,sans-serif;font-size:16px;fill:#333;}@keyframes edge-animation-frame{from{stroke-dashoffset:0;}}@keyframes dash{to{stroke-dashoffset:0;}}#my-svg .edge-animation-slow{stroke-dasharray:9,5!important;stroke-dashoffset:900;animation:dash 50s linear infinite;stroke-linecap:round;}#my-svg .edge-animation-fast{stroke-dasharray:9,5!important;stroke-dashoffset:900;animation:dash 20s linear infinite;stroke-linecap:round;}#my-svg .error-icon{fill:#552222;}#my-svg .error-text{fill:#552222;stroke:#552222;}#my-svg .edge-thickness-normal{stroke-width:1px;}#my-svg .edge-thickness-thick{stroke-width:3.5px;}#my-svg .edge-pattern-solid{stroke-dasharray:0;}#my-svg .edge-thickness-invisible{stroke-width:0;fill:none;}#my-svg .edge-pattern-dashed{stroke-dasharray:3;}#my-svg .edge-pattern-dotted{stroke-dasharray:2;}#my-svg .marker{fill:#333333;stroke:#333333;}#my-svg .marker.cross{stroke:#333333;}#my-svg svg{font-family:"trebuchet ms",verdana,arial,sans-serif;font-size:16px;}#my-svg p{margin:0;}#my-svg .label{font-family:"trebuchet ms",verdana,arial,sans-serif;color:#333;}#my-svg .cluster-label text{fill:#333;}#my-svg .cluster-label span{color:#333;}#my-svg .cluster-label span p{background-color:transparent;}#my-svg .label text,#my-svg span{fill:#333;color:#333;}#my-svg .node rect,#my-svg .node circle,#my-svg .node ellipse,#my-svg .node polygon,#my-svg .node path{fill:#ECECFF;stroke:#9370DB;stroke-width:1px;}#my-svg .rough-node .label text,#my-svg .node .label text,#my-svg .image-shape .label,#my-svg .icon-shape .label{text-anchor:middle;}#my-svg .node .katex path{fill:#000;stroke:#000;stroke-width:1px;}#my-svg .rough-node .label,#my-svg .node .label,#my-svg .image-shape .label,#my-svg .icon-shape .label{text-align:center;}#my-svg .node.clickable{cursor:pointer;}#my-svg .root .anchor path{fill:#333333!important;stroke-width:0;stroke:#333333;}#my-svg .arrowheadPath{fill:#333333;}#my-svg .edgePath .path{stroke:#333333;stroke-width:2.0px;}#my-svg .flowchart-link{stroke:#333333;fill:none;}#my-svg .edgeLabel{background-color:rgba(232,232,232, 0.8);text-align:center;}#my-svg .edgeLabel p{background-color:rgba(232,232,232, 0.8);}#my-svg .edgeLabel rect{opacity:0.5;background-color:rgba(232,232,232, 0.8);fill:rgba(232,232,232, 0.8);}#my-svg .labelBkg{background-color:rgba(232, 232, 232, 0.5);}#my-svg .cluster rect{fill:#ffffde;stroke:#aaaa33;stroke-width:1px;}#my-svg .cluster text{fill:#333;}#my-svg .cluster span{color:#333;}#my-svg div.mermaidTooltip{position:absolute;text-align:center;max-width:200px;padding:2px;font-family:"trebuchet ms",verdana,arial,sans-serif;font-size:12px;background:hsl(80, 100%, 96.2745098039%);border:1px solid #aaaa33;border-radius:2px;pointer-events:none;z-index:100;}#my-svg .flowchartTitleText{text-anchor:middle;font-size:18px;fill:#333;}#my-svg rect.text{fill:none;stroke-width:0;}#my-svg .icon-shape,#my-svg .image-shape{background-color:rgba(232,232,232, 0.8);text-align:center;}#my-svg .icon-shape p,#my-svg .image-shape p{background-color:rgba(232,232,232, 0.8);padding:2px;}#my-svg .icon-shape .label rect,#my-svg .image-shape .label rect{opacity:0.5;background-color:rgba(232,232,232, 0.8);fill:rgba(232,232,232, 0.8);}#my-svg .label-icon{display:inline-block;height:1em;overflow:visible;vertical-align:-0.125em;}#my-svg .node .label-icon path{fill:currentColor;stroke:revert;stroke-width:revert;}#my-svg :root{--mermaid-font-family:"trebuchet ms",verdana,arial,sans-serif;}</style><g><marker id="my-svg_flowchart-v2-pointEnd" class="marker flowchart-v2" viewBox="0 0 10 10" refX="5" refY="5" markerUnits="userSpaceOnUse" markerWidth="8" markerHeight="8" orient="auto"><path d="M 0 0 L 10 5 L 0 10 z" class="arrowMarkerPath" style="stroke-width: 1; stroke-dasharray: 1, 0;"/></marker><marker id="my-svg_flowchart-v2-pointStart" class="marker flowchart-v2" viewBox="0 0 10 10" refX="4.5" refY="5" markerUnits="userSpaceOnUse" markerWidth="8" markerHeight="8" orient="auto"><path d="M 0 5 L 10 10 L 10 0 z" class="arrowMarkerPath" style="stroke-width: 1; stroke-dasharray: 1, 0;"/></marker><marker id="my-svg_flowchart-v2-circleEnd" class="marker flowchart-v2" viewBox="0 0 10 10" refX="11" refY="5" markerUnits="userSpaceOnUse" markerWidth="11" markerHeight="11" orient="auto"><circle cx="5" cy="5" r="5" class="arrowMarkerPath" style="stroke-width: 1; stroke-dasharray: 1, 0;"/></marker><marker id="my-svg_flowchart-v2-circleStart" class="marker flowchart-v2" viewBox="0 0 10 10" refX="-1" refY="5" markerUnits="userSpaceOnUse" markerWidth="11" markerHeight="11" orient="auto"><circle cx="5" cy="5" r="5" class="arrowMarkerPath" style="stroke-width: 1; stroke-dasharray: 1, 0;"/></marker><marker id="my-svg_flowchart-v2-crossEnd" class="marker cross flowchart-v2" viewBox="0 0 11 11" refX="12" refY="5.2" markerUnits="userSpaceOnUse" markerWidth="11" markerHeight="11" orient="auto"><path d="M 1,1 l 9,9 M 10,1 l -9,9" class="arrowMarkerPath" style="stroke-width: 2; stroke-dasharray: 1, 0;"/></marker><marker id="my-svg_flowchart-v2-crossStart" class="marker cross flowchart-v2" viewBox="0 0 11 11" refX="-1" refY="5.2" markerUnits="userSpaceOnUse" markerWidth="11" markerHeight="11" orient="auto"><path d="M 1,1 l 9,9 M 10,1 l -9,9" class="arrowMarkerPath" style="stroke-width: 2; stroke-dasharray: 1, 0;"/></marker><g class="root"><g class="clusters"><g class="cluster" id="subGraph9" data-look="classic"><rect style="" x="828.515625" y="132" width="532.484375" height="578"/><g class="cluster-label" transform="translate(1057.8828125, 132)"><foreignObject width="73.75" height="24"><div xmlns="http://www.w3.org/1999/xhtml" style="display: table-cell; white-space: nowrap; line-height: 1.5;"><span class="nodeLabel"><p>Data layer</p></span></div></foreignObject></g></g><g class="cluster" id="subGraph6" data-look="classic"><rect style="" x="8" y="8" width="770.515625" height="764"/><g class="cluster-label" transform="translate(365.453125, 8)"><foreignObject width="55.609375" height="24"><div xmlns="http://www.w3.org/1999/xhtml" style="display: table-cell; white-space: nowrap; line-height: 1.5;"><span class="nodeLabel"><p>UI layer</p></span></div></foreignObject></g></g><g class="cluster" id="subGraph8" data-look="classic"><rect style="" x="1147.703125" y="163" width="188.296875" height="444"/><g class="cluster-label" transform="translate(1195.6171875, 163)"><foreignObject width="92.46875" height="24"><div xmlns="http://www.w3.org/1999/xhtml" style="display: table-cell; white-space: nowrap; line-height: 1.5;"><span class="nodeLabel"><p>Service layer</p></span></div></foreignObject></g></g><g class="cluster" id="subGraph7" data-look="classic"><rect style="" x="853.515625" y="152" width="244.1875" height="538"/><g class="cluster-label" transform="translate(917.734375, 152)"><foreignObject width="115.75" height="24"><div xmlns="http://www.w3.org/1999/xhtml" style="display: table-cell; white-space: nowrap; line-height: 1.5;"><span class="nodeLabel"><p>Repository layer</p></span></div></foreignObject></g></g><g class="cluster" id="VM" data-look="classic"><rect style="" x="395.828125" y="50" width="357.6875" height="702"/><g class="cluster-label" transform="translate(564.296875, 50)"><foreignObject width="20.75" height="24"><div xmlns="http://www.w3.org/1999/xhtml" style="display: table-cell; white-space: nowrap; line-height: 1.5;"><span class="nodeLabel"><p>VM</p></span></div></foreignObject></g></g><g class="cluster" id="View" data-look="classic"><rect style="" x="33" y="28" width="312.828125" height="724"/><g class="cluster-label" transform="translate(172.2578125, 28)"><foreignObject width="34.3125" height="24"><div xmlns="http://www.w3.org/1999/xhtml" style="display: table-cell; white-space: nowrap; line-height: 1.5;"><span class="nodeLabel"><p>View</p></span></div></foreignObject></g></g><g class="cluster" id="subGraph4" data-look="classic"><rect style="" x="420.828125" y="70" width="307.6875" height="268"/><g class="cluster-label" transform="translate(532.2734375, 70)"><foreignObject width="84.796875" height="24"><div xmlns="http://www.w3.org/1999/xhtml" style="display: table-cell; white-space: nowrap; line-height: 1.5;"><span class="nodeLabel"><p>Exercise  VM</p></span></div></foreignObject></g></g><g class="cluster" id="subGraph3" data-look="classic"><rect style="" x="420.828125" y="400" width="307.6875" height="332"/><g class="cluster-label" transform="translate(533.484375, 400)"><foreignObject width="82.375" height="24"><div xmlns="http://www.w3.org/1999/xhtml" style="display: table-cell; white-space: nowrap; line-height: 1.5;"><span class="nodeLabel"><p>Training  VM</p></span></div></foreignObject></g></g><g class="cluster" id="subGraph1" data-look="classic"><rect style="" x="58" y="48" width="262.828125" height="332"/><g class="cluster-label" transform="translate(140.2421875, 48)"><foreignObject width="98.34375" height="24"><div xmlns="http://www.w3.org/1999/xhtml" style="display: table-cell; white-space: nowrap; line-height: 1.5;"><span class="nodeLabel"><p>Exercise View</p></span></div></foreignObject></g></g><g class="cluster" id="subGraph0" data-look="classic"><rect style="" x="58" y="400" width="262.828125" height="332"/><g class="cluster-label" transform="translate(141.453125, 400)"><foreignObject width="95.921875" height="24"><div xmlns="http://www.w3.org/1999/xhtml" style="display: table-cell; white-space: nowrap; line-height: 1.5;"><span class="nodeLabel"><p>Training View</p></span></div></foreignObject></g></g></g><g class="edgePaths"><path d="M1411,390L1406.833,390C1402.667,390,1394.333,390,1386,390C1377.667,390,1369.333,390,1361,390C1352.667,390,1344.333,390,1336.667,390C1329,390,1322,390,1318.5,390L1315,390" id="L_A_SR_0" class="edge-thickness-normal edge-pattern-solid edge-thickness-normal edge-pattern-solid flowchart-link" style=";" data-edge="true" data-et="edge" data-id="L_A_SR_0" data-points="W3sieCI6MTQxMSwieSI6MzkwfSx7IngiOjEzODYsInkiOjM5MH0seyJ4IjoxMzYxLCJ5IjozOTB9LHsieCI6MTMzNiwieSI6MzkwfSx7IngiOjEzMTEsInkiOjM5MH1d" marker-end="url(#my-svg_flowchart-v2-pointEnd)"/><path d="M1227.408,417L1214.124,441.833C1200.84,466.667,1174.272,516.333,1156.821,541.167C1139.37,566,1131.036,566,1122.703,566C1114.37,566,1106.036,566,1098.168,566C1090.299,566,1082.896,566,1079.194,566L1075.492,566" id="L_SR_K_0" class="edge-thickness-normal edge-pattern-solid edge-thickness-normal edge-pattern-solid flowchart-link" style=";" data-edge="true" data-et="edge" data-id="L_SR_K_0" data-points="W3sieCI6MTIyNy40MDgzMzYyOTI2MTM3LCJ5Ijo0MTd9LHsieCI6MTE0Ny43MDMxMjUsInkiOjU2Nn0seyJ4IjoxMTIyLjcwMzEyNSwieSI6NTY2fSx7IngiOjEwOTcuNzAzMTI1LCJ5Ijo1NjZ9LHsieCI6MTA3MS40OTIxODc1LCJ5Ijo1NjZ9XQ==" marker-end="url(#my-svg_flowchart-v2-pointEnd)"/><path d="M1227.408,363L1214.124,338.167C1200.84,313.333,1174.272,263.667,1156.821,238.833C1139.37,214,1131.036,214,1122.703,214C1114.37,214,1106.036,214,1098.37,214C1090.703,214,1083.703,214,1080.203,214L1076.703,214" id="L_SR_P_0" class="edge-thickness-normal edge-pattern-solid edge-thickness-normal edge-pattern-solid flowchart-link" style=";" data-edge="true" data-et="edge" data-id="L_SR_P_0" data-points="W3sieCI6MTIyNy40MDgzMzYyOTI2MTM3LCJ5IjozNjN9LHsieCI6MTE0Ny43MDMxMjUsInkiOjIxNH0seyJ4IjoxMTIyLjcwMzEyNSwieSI6MjE0fSx7IngiOjEwOTcuNzAzMTI1LCJ5IjoyMTR9LHsieCI6MTA3Mi43MDMxMjUsInkiOjIxNH1d" marker-end="url(#my-svg_flowchart-v2-pointEnd)"/><path d="M943.912,539L928.846,526.167C913.78,513.333,883.648,487.667,864.415,474.833C845.182,462,836.849,462,828.516,462C820.182,462,811.849,462,803.516,462C795.182,462,786.849,462,778.516,462C770.182,462,761.849,462,753.516,462C745.182,462,736.849,462,727.828,462C718.807,462,709.099,462,704.245,462L699.391,462" id="L_K_M_0" class="edge-thickness-normal edge-pattern-solid edge-thickness-normal edge-pattern-solid flowchart-link" style=";" data-edge="true" data-et="edge" data-id="L_K_M_0" data-points="W3sieCI6OTQzLjkxMTk1OTEzNDYxNTQsInkiOjUzOX0seyJ4Ijo4NTMuNTE1NjI1LCJ5Ijo0NjJ9LHsieCI6ODI4LjUxNTYyNSwieSI6NDYyfSx7IngiOjgwMy41MTU2MjUsInkiOjQ2Mn0seyJ4Ijo3NzguNTE1NjI1LCJ5Ijo0NjJ9LHsieCI6NzUzLjUxNTYyNSwieSI6NDYyfSx7IngiOjcyOC41MTU2MjUsInkiOjQ2Mn0seyJ4Ijo2OTUuMzkwNjI1LCJ5Ijo0NjJ9XQ==" marker-end="url(#my-svg_flowchart-v2-pointEnd)"/><path d="M879.727,566L875.358,566C870.99,566,862.253,566,853.717,566C845.182,566,836.849,566,828.516,566C820.182,566,811.849,566,803.516,566C795.182,566,786.849,566,778.516,566C770.182,566,761.849,566,753.516,566C745.182,566,736.849,566,727.824,566C718.799,566,709.083,566,704.225,566L699.367,566" id="L_K_N_0" class="edge-thickness-normal edge-pattern-solid edge-thickness-normal edge-pattern-solid flowchart-link" style=";" data-edge="true" data-et="edge" data-id="L_K_N_0" data-points="W3sieCI6ODc5LjcyNjU2MjUsInkiOjU2Nn0seyJ4Ijo4NTMuNTE1NjI1LCJ5Ijo1NjZ9LHsieCI6ODI4LjUxNTYyNSwieSI6NTY2fSx7IngiOjgwMy41MTU2MjUsInkiOjU2Nn0seyJ4Ijo3NzguNTE1NjI1LCJ5Ijo1NjZ9LHsieCI6NzUzLjUxNTYyNSwieSI6NTY2fSx7IngiOjcyOC41MTU2MjUsInkiOjU2Nn0seyJ4Ijo2OTUuMzY3MTg3NSwieSI6NTY2fV0=" marker-end="url(#my-svg_flowchart-v2-pointEnd)"/><path d="M943.912,593L928.846,605.833C913.78,618.667,883.648,644.333,864.415,657.167C845.182,670,836.849,670,828.516,670C820.182,670,811.849,670,803.516,670C795.182,670,786.849,670,778.516,670C770.182,670,761.849,670,753.516,670C745.182,670,736.849,670,729.182,670C721.516,670,714.516,670,711.016,670L707.516,670" id="L_K_L_0" class="edge-thickness-normal edge-pattern-solid edge-thickness-normal edge-pattern-solid flowchart-link" style=";" data-edge="true" data-et="edge" data-id="L_K_L_0" data-points="W3sieCI6OTQzLjkxMTk1OTEzNDYxNTQsInkiOjU5M30seyJ4Ijo4NTMuNTE1NjI1LCJ5Ijo2NzB9LHsieCI6ODI4LjUxNTYyNSwieSI6NjcwfSx7IngiOjgwMy41MTU2MjUsInkiOjY3MH0seyJ4Ijo3NzguNTE1NjI1LCJ5Ijo2NzB9LHsieCI6NzUzLjUxNTYyNSwieSI6NjcwfSx7IngiOjcyOC41MTU2MjUsInkiOjY3MH0seyJ4Ijo3MDMuNTE1NjI1LCJ5Ijo2NzB9XQ==" marker-end="url(#my-svg_flowchart-v2-pointEnd)"/><path d="M878.516,214L874.349,214C870.182,214,861.849,214,853.516,214C845.182,214,836.849,214,828.516,214C820.182,214,811.849,214,803.516,214C795.182,214,786.849,214,778.516,214C770.182,214,761.849,214,753.516,214C745.182,214,736.849,214,728.569,214C720.289,214,712.063,214,707.949,214L703.836,214" id="L_P_C_0" class="edge-thickness-normal edge-pattern-solid edge-thickness-normal edge-pattern-solid flowchart-link" style=";" data-edge="true" data-et="edge" data-id="L_P_C_0" data-points="W3sieCI6ODc4LjUxNTYyNSwieSI6MjE0fSx7IngiOjg1My41MTU2MjUsInkiOjIxNH0seyJ4Ijo4MjguNTE1NjI1LCJ5IjoyMTR9LHsieCI6ODAzLjUxNTYyNSwieSI6MjE0fSx7IngiOjc3OC41MTU2MjUsInkiOjIxNH0seyJ4Ijo3NTMuNTE1NjI1LCJ5IjoyMTR9LHsieCI6NzI4LjUxNTYyNSwieSI6MjE0fSx7IngiOjY5OS44MzU5Mzc1LCJ5IjoyMTR9XQ==" marker-end="url(#my-svg_flowchart-v2-pointEnd)"/><path d="M453.953,462L448.432,462C442.911,462,431.87,462,422.182,462C412.495,462,404.161,462,395.828,462C387.495,462,379.161,462,370.828,462C362.495,462,354.161,462,345.828,462C337.495,462,329.161,462,316.271,462C303.38,462,285.932,462,277.208,462L268.484,462" id="L_M_B_0" class="edge-thickness-normal edge-pattern-solid edge-thickness-normal edge-pattern-solid flowchart-link" style=";" data-edge="true" data-et="edge" data-id="L_M_B_0" data-points="W3sieCI6NDUzLjk1MzEyNSwieSI6NDYyfSx7IngiOjQyMC44MjgxMjUsInkiOjQ2Mn0seyJ4IjozOTUuODI4MTI1LCJ5Ijo0NjJ9LHsieCI6MzcwLjgyODEyNSwieSI6NDYyfSx7IngiOjM0NS44MjgxMjUsInkiOjQ2Mn0seyJ4IjozMjAuODI4MTI1LCJ5Ijo0NjJ9LHsieCI6MjY0LjQ4NDM3NSwieSI6NDYyfV0=" marker-end="url(#my-svg_flowchart-v2-pointEnd)"/><path d="M453.977,566L448.452,566C442.927,566,431.878,566,422.186,566C412.495,566,404.161,566,395.828,566C387.495,566,379.161,566,370.828,566C362.495,566,354.161,566,345.828,566C337.495,566,329.161,566,321.495,566C313.828,566,306.828,566,303.328,566L299.828,566" id="L_N_D_0" class="edge-thickness-normal edge-pattern-solid edge-thickness-normal edge-pattern-solid flowchart-link" style=";" data-edge="true" data-et="edge" data-id="L_N_D_0" data-points="W3sieCI6NDUzLjk3NjU2MjUsInkiOjU2Nn0seyJ4Ijo0MjAuODI4MTI1LCJ5Ijo1NjZ9LHsieCI6Mzk1LjgyODEyNSwieSI6NTY2fSx7IngiOjM3MC44MjgxMjUsInkiOjU2Nn0seyJ4IjozNDUuODI4MTI1LCJ5Ijo1NjZ9LHsieCI6MzIwLjgyODEyNSwieSI6NTY2fSx7IngiOjI5NS44MjgxMjUsInkiOjU2Nn1d" marker-end="url(#my-svg_flowchart-v2-pointEnd)"/><path d="M445.828,670L441.661,670C437.495,670,429.161,670,420.828,670C412.495,670,404.161,670,395.828,670C387.495,670,379.161,670,370.828,670C362.495,670,354.161,670,345.828,670C337.495,670,329.161,670,318.849,670C308.536,670,296.245,670,290.099,670L283.953,670" id="L_L_G_0" class="edge-thickness-normal edge-pattern-solid edge-thickness-normal edge-pattern-solid flowchart-link" style=";" data-edge="true" data-et="edge" data-id="L_L_G_0" data-points="W3sieCI6NDQ1LjgyODEyNSwieSI6NjcwfSx7IngiOjQyMC44MjgxMjUsInkiOjY3MH0seyJ4IjozOTUuODI4MTI1LCJ5Ijo2NzB9LHsieCI6MzcwLjgyODEyNSwieSI6NjcwfSx7IngiOjM0NS44MjgxMjUsInkiOjY3MH0seyJ4IjozMjAuODI4MTI1LCJ5Ijo2NzB9LHsieCI6Mjc5Ljk1MzEyNSwieSI6NjcwfV0=" marker-end="url(#my-svg_flowchart-v2-pointEnd)"/><path d="M534.732,187L515.748,174.167C496.764,161.333,458.796,135.667,435.645,122.833C412.495,110,404.161,110,395.828,110C387.495,110,379.161,110,370.828,110C362.495,110,354.161,110,345.828,110C337.495,110,329.161,110,317.697,110C306.232,110,291.635,110,284.337,110L277.039,110" id="L_C_Q_0" class="edge-thickness-normal edge-pattern-solid edge-thickness-normal edge-pattern-solid flowchart-link" style=";" data-edge="true" data-et="edge" data-id="L_C_Q_0" data-points="W3sieCI6NTM0LjczMTY3MDY3MzA3NjksInkiOjE4N30seyJ4Ijo0MjAuODI4MTI1LCJ5IjoxMTB9LHsieCI6Mzk1LjgyODEyNSwieSI6MTEwfSx7IngiOjM3MC44MjgxMjUsInkiOjExMH0seyJ4IjozNDUuODI4MTI1LCJ5IjoxMTB9LHsieCI6MzIwLjgyODEyNSwieSI6MTEwfSx7IngiOjI3My4wMzkwNjI1LCJ5IjoxMTB9XQ==" marker-end="url(#my-svg_flowchart-v2-pointEnd)"/><path d="M449.508,214L444.728,214C439.948,214,430.388,214,421.441,214C412.495,214,404.161,214,395.828,214C387.495,214,379.161,214,370.828,214C362.495,214,354.161,214,345.828,214C337.495,214,329.161,214,317.694,214C306.227,214,291.625,214,284.324,214L277.023,214" id="L_C_W_0" class="edge-thickness-normal edge-pattern-solid edge-thickness-normal edge-pattern-solid flowchart-link" style=";" data-edge="true" data-et="edge" data-id="L_C_W_0" data-points="W3sieCI6NDQ5LjUwNzgxMjUsInkiOjIxNH0seyJ4Ijo0MjAuODI4MTI1LCJ5IjoyMTR9LHsieCI6Mzk1LjgyODEyNSwieSI6MjE0fSx7IngiOjM3MC44MjgxMjUsInkiOjIxNH0seyJ4IjozNDUuODI4MTI1LCJ5IjoyMTR9LHsieCI6MzIwLjgyODEyNSwieSI6MjE0fSx7IngiOjI3My4wMjM0Mzc1LCJ5IjoyMTR9XQ==" marker-end="url(#my-svg_flowchart-v2-pointEnd)"/><path d="M534.732,241L515.748,253.833C496.764,266.667,458.796,292.333,435.645,305.167C412.495,318,404.161,318,395.828,318C387.495,318,379.161,318,370.828,318C362.495,318,354.161,318,345.828,318C337.495,318,329.161,318,316.06,318C302.958,318,285.089,318,276.154,318L267.219,318" id="L_C_R_0" class="edge-thickness-normal edge-pattern-solid edge-thickness-normal edge-pattern-solid flowchart-link" style=";" data-edge="true" data-et="edge" data-id="L_C_R_0" data-points="W3sieCI6NTM0LjczMTY3MDY3MzA3NjksInkiOjI0MX0seyJ4Ijo0MjAuODI4MTI1LCJ5IjozMTh9LHsieCI6Mzk1LjgyODEyNSwieSI6MzE4fSx7IngiOjM3MC44MjgxMjUsInkiOjMxOH0seyJ4IjozNDUuODI4MTI1LCJ5IjozMTh9LHsieCI6MzIwLjgyODEyNSwieSI6MzE4fSx7IngiOjI2My4yMTg3NSwieSI6MzE4fV0=" marker-end="url(#my-svg_flowchart-v2-pointEnd)"/></g><g class="edgeLabels"><g class="edgeLabel"><g class="label" data-id="L_A_SR_0" transform="translate(0, 0)"><foreignObject width="0" height="0"><div xmlns="http://www.w3.org/1999/xhtml" class="labelBkg" style="display: table-cell; white-space: nowrap; line-height: 1.5; max-width: 200px; text-align: center;"><span class="edgeLabel"></span></div></foreignObject></g></g><g class="edgeLabel"><g class="label" data-id="L_SR_K_0" transform="translate(0, 0)"><foreignObject width="0" height="0"><div xmlns="http://www.w3.org/1999/xhtml" class="labelBkg" style="display: table-cell; white-space: nowrap; line-height: 1.5; max-width: 200px; text-align: center;"><span class="edgeLabel"></span></div></foreignObject></g></g><g class="edgeLabel"><g class="label" data-id="L_SR_P_0" transform="translate(0, 0)"><foreignObject width="0" height="0"><div xmlns="http://www.w3.org/1999/xhtml" class="labelBkg" style="display: table-cell; white-space: nowrap; line-height: 1.5; max-width: 200px; text-align: center;"><span class="edgeLabel"></span></div></foreignObject></g></g><g class="edgeLabel"><g class="label" data-id="L_K_M_0" transform="translate(0, 0)"><foreignObject width="0" height="0"><div xmlns="http://www.w3.org/1999/xhtml" class="labelBkg" style="display: table-cell; white-space: nowrap; line-height: 1.5; max-width: 200px; text-align: center;"><span class="edgeLabel"></span></div></foreignObject></g></g><g class="edgeLabel"><g class="label" data-id="L_K_N_0" transform="translate(0, 0)"><foreignObject width="0" height="0"><div xmlns="http://www.w3.org/1999/xhtml" class="labelBkg" style="display: table-cell; white-space: nowrap; line-height: 1.5; max-width: 200px; text-align: center;"><span class="edgeLabel"></span></div></foreignObject></g></g><g class="edgeLabel"><g class="label" data-id="L_K_L_0" transform="translate(0, 0)"><foreignObject width="0" height="0"><div xmlns="http://www.w3.org/1999/xhtml" class="labelBkg" style="display: table-cell; white-space: nowrap; line-height: 1.5; max-width: 200px; text-align: center;"><span class="edgeLabel"></span></div></foreignObject></g></g><g class="edgeLabel"><g class="label" data-id="L_P_C_0" transform="translate(0, 0)"><foreignObject width="0" height="0"><div xmlns="http://www.w3.org/1999/xhtml" class="labelBkg" style="display: table-cell; white-space: nowrap; line-height: 1.5; max-width: 200px; text-align: center;"><span class="edgeLabel"></span></div></foreignObject></g></g><g class="edgeLabel"><g class="label" data-id="L_M_B_0" transform="translate(0, 0)"><foreignObject width="0" height="0"><div xmlns="http://www.w3.org/1999/xhtml" class="labelBkg" style="display: table-cell; white-space: nowrap; line-height: 1.5; max-width: 200px; text-align: center;"><span class="edgeLabel"></span></div></foreignObject></g></g><g class="edgeLabel"><g class="label" data-id="L_N_D_0" transform="translate(0, 0)"><foreignObject width="0" height="0"><div xmlns="http://www.w3.org/1999/xhtml" class="labelBkg" style="display: table-cell; white-space: nowrap; line-height: 1.5; max-width: 200px; text-align: center;"><span class="edgeLabel"></span></div></foreignObject></g></g><g class="edgeLabel"><g class="label" data-id="L_L_G_0" transform="translate(0, 0)"><foreignObject width="0" height="0"><div xmlns="http://www.w3.org/1999/xhtml" class="labelBkg" style="display: table-cell; white-space: nowrap; line-height: 1.5; max-width: 200px; text-align: center;"><span class="edgeLabel"></span></div></foreignObject></g></g><g class="edgeLabel"><g class="label" data-id="L_C_Q_0" transform="translate(0, 0)"><foreignObject width="0" height="0"><div xmlns="http://www.w3.org/1999/xhtml" class="labelBkg" style="display: table-cell; white-space: nowrap; line-height: 1.5; max-width: 200px; text-align: center;"><span class="edgeLabel"></span></div></foreignObject></g></g><g class="edgeLabel"><g class="label" data-id="L_C_W_0" transform="translate(0, 0)"><foreignObject width="0" height="0"><div xmlns="http://www.w3.org/1999/xhtml" class="labelBkg" style="display: table-cell; white-space: nowrap; line-height: 1.5; max-width: 200px; text-align: center;"><span class="edgeLabel"></span></div></foreignObject></g></g><g class="edgeLabel"><g class="label" data-id="L_C_R_0" transform="translate(0, 0)"><foreignObject width="0" height="0"><div xmlns="http://www.w3.org/1999/xhtml" class="labelBkg" style="display: table-cell; white-space: nowrap; line-height: 1.5; max-width: 200px; text-align: center;"><span class="edgeLabel"></span></div></foreignObject></g></g></g><g class="nodes"><g class="node default" id="flowchart-A-0" transform="translate(1458.5, 390)"><rect class="basic label-container" style="" x="-47.5" y="-27" width="95" height="54"/><g class="label" style="" transform="translate(-17.5, -12)"><rect/><foreignObject width="35" height="24"><div xmlns="http://www.w3.org/1999/xhtml" style="display: table-cell; white-space: nowrap; line-height: 1.5; max-width: 200px; text-align: center;"><span class="nodeLabel"><p>main</p></span></div></foreignObject></g></g><g class="node default" id="flowchart-B-1" transform="translate(189.4140625, 462)"><rect class="basic label-container" style="" x="-75.0703125" y="-27" width="150.140625" height="54"/><g class="label" style="" transform="translate(-45.0703125, -12)"><rect/><foreignObject width="90.140625" height="24"><div xmlns="http://www.w3.org/1999/xhtml" style="display: table-cell; white-space: nowrap; line-height: 1.5; max-width: 200px; text-align: center;"><span class="nodeLabel"><p>TrainingPage</p></span></div></foreignObject></g></g><g class="node default" id="flowchart-D-2" transform="translate(189.4140625, 566)"><rect class="basic label-container" style="" x="-106.4140625" y="-27" width="212.828125" height="54"/><g class="label" style="" transform="translate(-76.4140625, -12)"><rect/><foreignObject width="152.828125" height="24"><div xmlns="http://www.w3.org/1999/xhtml" style="display: table-cell; white-space: nowrap; line-height: 1.5; max-width: 200px; text-align: center;"><span class="nodeLabel"><p>CreateTrainingScreen</p></span></div></foreignObject></g></g><g class="node default" id="flowchart-G-3" transform="translate(189.4140625, 670)"><rect class="basic label-container" style="" x="-90.5390625" y="-27" width="181.078125" height="54"/><g class="label" style="" transform="translate(-60.5390625, -12)"><rect/><foreignObject width="121.078125" height="24"><div xmlns="http://www.w3.org/1999/xhtml" style="display: table-cell; white-space: nowrap; line-height: 1.5; max-width: 200px; text-align: center;"><span class="nodeLabel"><p>DatePickerDialog</p></span></div></foreignObject></g></g><g class="node default" id="flowchart-Q-4" transform="translate(189.4140625, 110)"><rect class="basic label-container" style="" x="-83.625" y="-27" width="167.25" height="54"/><g class="label" style="" transform="translate(-53.625, -12)"><rect/><foreignObject width="107.25" height="24"><div xmlns="http://www.w3.org/1999/xhtml" style="display: table-cell; white-space: nowrap; line-height: 1.5; max-width: 200px; text-align: center;"><span class="nodeLabel"><p>ExerciseScreen</p></span></div></foreignObject></g></g><g class="node default" id="flowchart-W-5" transform="translate(189.4140625, 214)"><rect class="basic label-container" style="" x="-83.609375" y="-27" width="167.21875" height="54"/><g class="label" style="" transform="translate(-53.609375, -12)"><rect/><foreignObject width="107.21875" height="24"><div xmlns="http://www.w3.org/1999/xhtml" style="display: table-cell; white-space: nowrap; line-height: 1.5; max-width: 200px; text-align: center;"><span class="nodeLabel"><p>ExerciseCreate</p></span></div></foreignObject></g></g><g class="node default" id="flowchart-R-6" transform="translate(189.4140625, 318)"><rect class="basic label-container" style="" x="-73.8046875" y="-27" width="147.609375" height="54"/><g class="label" style="" transform="translate(-43.8046875, -12)"><rect/><foreignObject width="87.609375" height="24"><div xmlns="http://www.w3.org/1999/xhtml" style="display: table-cell; white-space: nowrap; line-height: 1.5; max-width: 200px; text-align: center;"><span class="nodeLabel"><p>ExerciseEdit</p></span></div></foreignObject></g></g><g class="node default" id="flowchart-M-7" transform="translate(574.671875, 462)"><rect class="basic label-container" style="" x="-120.71875" y="-27" width="241.4375" height="54"/><g class="label" style="" transform="translate(-90.71875, -12)"><rect/><foreignObject width="181.4375" height="24"><div xmlns="http://www.w3.org/1999/xhtml" style="display: table-cell; white-space: nowrap; line-height: 1.5; max-width: 200px; text-align: center;"><span class="nodeLabel"><p>TrainingScreenViewModel</p></span></div></foreignObject></g></g><g class="node default" id="flowchart-N-8" transform="translate(574.671875, 566)"><rect class="basic label-container" style="" x="-120.6953125" y="-27" width="241.390625" height="54"/><g class="label" style="" transform="translate(-90.6953125, -12)"><rect/><foreignObject width="181.390625" height="24"><div xmlns="http://www.w3.org/1999/xhtml" style="display: table-cell; white-space: nowrap; line-height: 1.5; max-width: 200px; text-align: center;"><span class="nodeLabel"><p>CreateTrainingViewModel</p></span></div></foreignObject></g></g><g class="node default" id="flowchart-L-9" transform="translate(574.671875, 670)"><rect class="basic label-container" style="" x="-128.84375" y="-27" width="257.6875" height="54"/><g class="label" style="" transform="translate(-98.84375, -12)"><rect/><foreignObject width="197.6875" height="24"><div xmlns="http://www.w3.org/1999/xhtml" style="display: table-cell; white-space: nowrap; line-height: 1.5; max-width: 200px; text-align: center;"><span class="nodeLabel"><p>DatePickerDialogViewModel</p></span></div></foreignObject></g></g><g class="node default" id="flowchart-C-10" transform="translate(574.671875, 214)"><rect class="basic label-container" style="" x="-125.1640625" y="-27" width="250.328125" height="54"/><g class="label" style="" transform="translate(-95.1640625, -12)"><rect/><foreignObject width="190.328125" height="24"><div xmlns="http://www.w3.org/1999/xhtml" style="display: table-cell; white-space: nowrap; line-height: 1.5; max-width: 200px; text-align: center;"><span class="nodeLabel"><p>ExercisesScreenViewModel</p></span></div></foreignObject></g></g><g class="node default" id="flowchart-K-11" transform="translate(975.609375, 566)"><rect class="basic label-container" style="" x="-95.8828125" y="-27" width="191.765625" height="54"/><g class="label" style="" transform="translate(-65.8828125, -12)"><rect/><foreignObject width="131.765625" height="24"><div xmlns="http://www.w3.org/1999/xhtml" style="display: table-cell; white-space: nowrap; line-height: 1.5; max-width: 200px; text-align: center;"><span class="nodeLabel"><p>TrainingRepository</p></span></div></foreignObject></g></g><g class="node default" id="flowchart-P-12" transform="translate(975.609375, 214)"><rect class="basic label-container" style="" x="-97.09375" y="-27" width="194.1875" height="54"/><g class="label" style="" transform="translate(-67.09375, -12)"><rect/><foreignObject width="134.1875" height="24"><div xmlns="http://www.w3.org/1999/xhtml" style="display: table-cell; white-space: nowrap; line-height: 1.5; max-width: 200px; text-align: center;"><span class="nodeLabel"><p>ExerciseRepository</p></span></div></foreignObject></g></g><g class="node default" id="flowchart-SR-13" transform="translate(1241.8515625, 390)"><rect class="basic label-container" style="" x="-69.1484375" y="-27" width="138.296875" height="54"/><g class="label" style="" transform="translate(-39.1484375, -12)"><rect/><foreignObject width="78.296875" height="24"><div xmlns="http://www.w3.org/1999/xhtml" style="display: table-cell; white-space: nowrap; line-height: 1.5; max-width: 200px; text-align: center;"><span class="nodeLabel"><p>SQLService</p></span></div></foreignObject></g></g></g></g></g><text text-anchor="middle" x="757" y="-25" class="flowchartTitleText">ARCHITECTURE TRAINING NOTE</text></svg>